<svg width="122" height="122" viewBox="0 0 122 122" fill="none" xmlns="http://www.w3.org/2000/svg">
<g filter="url(#filter0_b_65_4302)">
<g filter="url(#filter1_d_65_4302)">
<circle cx="61" cy="52.9999" r="46" fill="#5AB4C5" fill-opacity="0.5"/>
<circle cx="61" cy="52.9999" r="47.5" stroke="white" stroke-width="3"/>
</g>
<path d="M60.2191 25.759C60.5238 25.759 60.7524 25.759 60.9048 25.7682C61.0571 25.7682 61.2857 25.759 61.5905 25.759C65.5903 25.759 81.8944 26.8534 87.9228 44.9802C89.6941 42.3591 92.2655 39.4713 94.9892 39.4713C96.1891 39.4713 97.4176 40.0323 98.6176 41.421C103.294 46.8195 96.1796 50.7649 90.4655 50.7649C90.0846 50.7649 89.7132 50.7465 89.3513 50.7097C90.0179 54.4712 90.3132 58.7845 90.1036 63.7507H86.4943C84.2277 75.4121 73.6281 84.2318 60.8952 84.2318C48.1624 84.2318 37.5723 75.4121 35.2962 63.7507H31.6868C31.4773 58.7845 31.7726 54.4804 32.4392 50.7281C32.1344 50.7557 31.8297 50.7649 31.5154 50.7649C25.8014 50.7649 18.6873 46.8195 23.3634 41.421C24.5633 40.0323 25.7918 39.4713 26.9918 39.4713C29.6488 39.4713 32.163 42.2212 33.9344 44.7962C40.0294 26.8442 56.2383 25.759 60.2191 25.759ZM60.2191 23C50.7337 23 39.1627 27.4236 33.0963 39.4621C31.1059 37.632 29.0679 36.7123 27.0013 36.7123C25.5061 36.7123 23.2776 37.2181 21.1825 39.6553C18.1731 43.1316 18.9254 46.139 19.6492 47.6288C21.2111 50.8477 25.2776 52.7882 29.1917 53.3584C28.8108 56.6324 28.6965 60.1548 28.8489 63.8702C28.906 65.3509 30.1726 66.5189 31.7059 66.5189H33.0487C36.4676 78.5206 47.8291 87 60.9143 87C73.9995 87 85.3705 78.5114 88.7799 66.5189H90.1227C91.656 66.5189 92.9131 65.3509 92.9797 63.8702C93.1321 60.164 93.0178 56.6416 92.6369 53.3768C96.5986 52.8434 100.77 50.8937 102.351 47.6288C103.075 46.139 103.827 43.1316 100.818 39.6553C98.7128 37.2273 96.4939 36.7123 94.9987 36.7123C92.894 36.7123 90.8084 37.6688 88.7799 39.5725C82.723 27.4512 71.1234 23 61.5905 23C61.3048 23 61.0762 23 60.9048 23.0092C60.7333 23 60.5048 23 60.2191 23Z" fill="white"/>
<path d="M36.4869 49.1647C36.4869 49.1647 29.5824 34.2476 23.3826 41.4118C17.1829 48.5761 32.3537 53.3768 36.4869 49.1647Z" fill="#E7A43C"/>
<path d="M33.3725 48.5577C33.2582 48.5577 33.1344 48.5117 33.0392 48.4289C30.2488 45.8263 27.4394 44.9158 27.4108 44.9066C27.1632 44.8238 27.0203 44.5663 27.106 44.3272C27.1918 44.0881 27.4584 43.9501 27.706 44.0329C27.8298 44.0697 30.744 45.0169 33.6963 47.7668C33.8867 47.9415 33.8867 48.2358 33.7058 48.4197C33.6106 48.5117 33.4868 48.5577 33.3629 48.5577H33.3725Z" fill="#F0C87C"/>
<path d="M85.5137 49.1647C85.5137 49.1647 92.4182 34.2476 98.6179 41.4118C104.818 48.5761 89.6468 53.3768 85.5137 49.1647Z" fill="#E7A43C"/>
<path d="M88.6178 48.5577C88.732 48.5577 88.8558 48.5117 88.9511 48.4289C91.7414 45.8263 94.5509 44.9158 94.5794 44.9066C94.827 44.8238 94.9699 44.5663 94.8842 44.3272C94.7985 44.0881 94.5318 43.9501 94.2842 44.0329C94.1604 44.0697 91.2462 45.0169 88.294 47.7668C88.1035 47.9415 88.1035 48.2358 88.2844 48.4197C88.3797 48.5117 88.5035 48.5577 88.6273 48.5577H88.6178Z" fill="#F0C87C"/>
<path d="M60.9048 84.241C75.2952 84.241 86.9609 72.9755 86.9609 59.0787C86.9609 45.182 75.2952 33.9165 60.9048 33.9165C46.5144 33.9165 34.8486 45.182 34.8486 59.0787C34.8486 72.9755 46.5144 84.241 60.9048 84.241Z" fill="#E7A43C"/>
<path style="mix-blend-mode:multiply" opacity="0.5" d="M60.9048 84.241C75.2952 84.241 86.9609 72.9755 86.9609 59.0787C86.9609 45.182 75.2952 33.9165 60.9048 33.9165C46.5144 33.9165 34.8486 45.182 34.8486 59.0787C34.8486 72.9755 46.5144 84.241 60.9048 84.241Z" fill="url(#paint0_linear_65_4302)"/>
<path d="M79.0854 54.8023C79.0854 51.0684 76.9331 47.822 73.7617 46.1665C73.1237 45.8355 72.4475 45.5688 71.7428 45.3756C57.9243 40.3082 49.5436 45.532 49.5436 45.532H49.5532C45.5819 46.8747 42.7344 50.5166 42.7344 54.8023C42.7344 60.2283 47.2866 64.6244 52.9054 64.6244C53.0387 64.6244 53.1625 64.606 53.2863 64.606C53.0578 65.3417 52.934 66.1142 52.934 66.9236C52.934 71.384 56.6767 74.9983 61.2956 74.9983C65.9144 74.9983 69.6571 71.384 69.6571 66.9236C69.6571 66.1142 69.5333 65.3417 69.3048 64.606C74.7331 64.4037 79.0758 60.0996 79.0758 54.8023H79.0854Z" fill="#F0C87C"/>
<path d="M54.1526 54.4804H49.4861C48.6867 54.4804 48.0386 55.1062 48.0386 55.8783V56.191C48.0386 56.963 48.6867 57.5889 49.4861 57.5889H54.1526C54.9521 57.5889 55.6002 56.963 55.6002 56.191V55.8783C55.6002 55.1062 54.9521 54.4804 54.1526 54.4804Z" fill="#171B1D"/>
<path d="M72.3328 54.4804H67.6663C66.8668 54.4804 66.2188 55.1062 66.2188 55.8783V56.191C66.2188 56.963 66.8668 57.5889 67.6663 57.5889H72.3328C73.1323 57.5889 73.7804 56.963 73.7804 56.191V55.8783C73.7804 55.1062 73.1323 54.4804 72.3328 54.4804Z" fill="#171B1D"/>
<path d="M60.8666 62.9782C60.7523 62.9782 60.6475 62.9414 60.5523 62.8678L58.6286 61.2584C58.4286 61.0928 58.4095 60.7985 58.5809 60.6054C58.7524 60.4123 59.0571 60.3939 59.2571 60.5594L60.8666 61.9113L62.476 60.5594C62.676 60.3939 62.9713 60.4123 63.1522 60.6054C63.3236 60.7985 63.3046 61.0836 63.1046 61.2584L61.1808 62.8678C61.0951 62.9414 60.9809 62.9782 60.8666 62.9782Z" fill="#171B1D"/>
<path d="M60.8668 68.2019C60.6001 68.2019 60.3906 67.9996 60.3906 67.7421V62.5183C60.3906 62.2608 60.6001 62.0585 60.8668 62.0585C61.1335 62.0585 61.343 62.2608 61.343 62.5183V67.7421C61.343 67.9996 61.1335 68.2019 60.8668 68.2019Z" fill="#171B1D"/>
<path d="M60.9045 68.4594C58.4379 68.4594 56.4189 66.5189 56.4189 64.1277C56.4189 63.8702 56.6285 63.6679 56.8951 63.6679C57.1618 63.6679 57.3713 63.8702 57.3713 64.1277C57.3713 66.0039 58.9522 67.5397 60.9045 67.5397C62.8568 67.5397 64.4377 66.0131 64.4377 64.1277C64.4377 63.8702 64.6472 63.6679 64.9139 63.6679C65.1805 63.6679 65.39 63.8702 65.39 64.1277C65.39 66.5097 63.3806 68.4594 60.9045 68.4594Z" fill="#171B1D"/>
<path d="M64.0669 51.8501C63.0098 51.8501 61.9146 51.5926 61.067 51.1788C61.0003 51.1512 60.9432 51.1144 60.8765 51.0776C60.048 51.5282 59.048 51.6662 58.1814 51.565C56.2767 51.3351 54.9625 50.0384 54.8387 48.2634C54.8196 48.0059 55.0196 47.7944 55.2767 47.776C55.5339 47.776 55.7624 47.9507 55.7815 48.199C55.8958 49.7901 57.1529 50.5074 58.2957 50.6454C58.848 50.7189 59.4575 50.6545 60.0004 50.4522C59.3909 49.8728 59.0956 49.1647 59.1909 48.4197C59.3052 47.4173 59.7908 46.6908 60.5146 46.4424C61.0575 46.2585 61.6574 46.3873 62.0765 46.7827C62.6479 47.3253 62.7907 48.245 62.4384 49.2475C62.2765 49.7257 62.0193 50.1211 61.7051 50.443C63.2669 51.1236 65.3144 51.0684 66.1906 50.2959C66.3811 50.1211 66.6858 50.1395 66.8668 50.3235C67.0477 50.5074 67.0287 50.8017 66.8382 50.9764C66.1525 51.5834 65.1335 51.8409 64.0669 51.8409V51.8501ZM61.0194 47.2885C60.9622 47.2885 60.8956 47.2977 60.8384 47.3161C60.4765 47.4449 60.2194 47.8955 60.1432 48.5209C60.067 49.1555 60.4384 49.6245 60.867 49.9556C61.1622 49.6981 61.4003 49.367 61.5432 48.9532C61.7717 48.3002 61.7241 47.73 61.4098 47.4357C61.2955 47.3253 61.1622 47.2702 61.0194 47.2702V47.2885Z" fill="#E7A43C"/>
<path opacity="0.5" d="M60.9048 42.0096C46.372 42.0096 38.1533 49.0267 38.1533 49.0267V63.7599C38.4581 63.8426 38.7723 63.9254 39.0771 64.0082C44.4483 65.4153 50.0576 64.0174 54.4479 60.7157C56.2288 59.373 58.4668 58.5729 60.9048 58.5729C63.3428 58.5729 65.638 59.3914 67.4284 60.7709C71.7044 64.045 77.2375 65.3509 82.523 64.0542C83.2563 63.8702 83.6563 63.7599 83.6563 63.7599V49.0267C83.6563 49.0267 75.4376 42.0096 60.9048 42.0096Z" fill="white"/>
<path d="M60.9052 25.7682C58.2006 25.667 30.1064 25.3635 31.6968 63.7507H38.1537V49.0175C38.1537 49.0175 45.0011 42.0648 60.9052 42.0004C76.8094 42.0648 83.6567 49.0175 83.6567 49.0175V63.7507H90.1136C91.7136 25.3635 63.6194 25.667 60.9052 25.7682Z" fill="#5AB4C5"/>
<path d="M83.666 49.9464C83.447 49.9464 83.2184 49.8728 83.0375 49.7165C82.9613 49.6521 74.8759 42.9293 60.9145 42.9293C46.9532 42.9293 38.8678 49.6521 38.7916 49.7165C38.3916 50.0476 37.7916 50.0108 37.4488 49.6337C37.1059 49.2567 37.1345 48.6773 37.5345 48.337C37.8773 48.0427 46.2008 41.09 60.9241 41.09C75.6473 41.09 83.9613 48.0427 84.3136 48.337C84.7041 48.6773 84.7422 49.2567 84.3993 49.6337C84.2089 49.836 83.9517 49.9464 83.6851 49.9464H83.666Z" fill="#B4E2EA"/>
</g>
<defs>
<filter id="filter0_b_65_4302" x="8" y="-9.15527e-05" width="106" height="106" filterUnits="userSpaceOnUse" color-interpolation-filters="sRGB">
<feFlood flood-opacity="0" result="BackgroundImageFix"/>
<feGaussianBlur in="BackgroundImageFix" stdDeviation="2"/>
<feComposite in2="SourceAlpha" operator="in" result="effect1_backgroundBlur_65_4302"/>
<feBlend mode="normal" in="SourceGraphic" in2="effect1_backgroundBlur_65_4302" result="shape"/>
</filter>
<filter id="filter1_d_65_4302" x="0" y="-9.15527e-05" width="122" height="122" filterUnits="userSpaceOnUse" color-interpolation-filters="sRGB">
<feFlood flood-opacity="0" result="BackgroundImageFix"/>
<feColorMatrix in="SourceAlpha" type="matrix" values="0 0 0 0 0 0 0 0 0 0 0 0 0 0 0 0 0 0 127 0" result="hardAlpha"/>
<feOffset dy="8"/>
<feGaussianBlur stdDeviation="6"/>
<feColorMatrix type="matrix" values="0 0 0 0 0 0 0 0 0 0 0 0 0 0 0 0 0 0 0.04 0"/>
<feBlend mode="normal" in2="BackgroundImageFix" result="effect1_dropShadow_65_4302"/>
<feBlend mode="normal" in="SourceGraphic" in2="effect1_dropShadow_65_4302" result="shape"/>
</filter>
<linearGradient id="paint0_linear_65_4302" x1="60.9048" y1="33.9257" x2="60.9048" y2="84.241" gradientUnits="userSpaceOnUse">
<stop stop-color="white" stop-opacity="0"/>
<stop offset="1" stop-color="#E7A43C"/>
</linearGradient>
</defs>
</svg>
